<svg xmlns="http://www.w3.org/2000/svg" viewBox="0 0 500 500"><g id="freepik--Character--inject-8"><path d="M267.1,276.22c12.67-17.65,25.07-25.93,30.18-46.12,18.76-4,56,8.92,65.87-12.55l-28.72-23.26s-50.31,3.92-57.46,18.93c-3,6.21-10.51,23.7-20.25,44.31-3.53,7.46-9.19,17-10.7,22.54l12.42,9.87C262.83,283.05,264.51,279.83,267.1,276.22Z" style="fill:#4285F4"></path><path d="M267.1,276.22c12.67-17.65,25.07-25.93,30.18-46.12,18.76-4,56,8.92,65.87-12.55l-28.72-23.26s-50.31,3.92-57.46,18.93c-3,6.21-10.51,23.7-20.25,44.31-3.53,7.46-9.19,17-10.7,22.54l12.42,9.87C262.83,283.05,264.51,279.83,267.1,276.22Z" style="fill:#fff;opacity:0.2"></path><path d="M257.66,299.34l-.89-.85-29.54-16.7c-1.48.43-2.43,3.94,1.56,6.09s10.25,5.34,14.37,7.56,7.52,4.24,11.39,6.32C255.66,302.36,257.39,301.19,257.66,299.34Z" style="fill:#4285F4"></path><path d="M257.66,299.34l-.89-.85-29.54-16.7c-1.48.43-2.43,3.94,1.56,6.09s10.25,5.34,14.37,7.56,7.52,4.24,11.39,6.32C255.66,302.36,257.39,301.19,257.66,299.34Z" style="opacity:0.30000000000000004"></path><path d="M264.39,288.09c-1.17,3.93-4.15,9.59-6.47,11.24-.41.78-1.09.44-1.87,0-4.27-2.3-9.06-5.07-13.14-7.35-4.77-2.67-8.09-3.88-13.68-7-3.39-1.9-2.3-4.29-.48-4.33,5.29-.14,10.9,2,17.16.38,1.76-4.94,8-23,11.77-28.31a1.59,1.59,0,0,1,1.5-.64c8.21,1.19,16.42,7.11,19.38,9.43a1.6,1.6,0,0,1,.35,2.14C275.91,268.27,265.3,284.73,264.39,288.09Z" style="fill:#263238"></path><path d="M288,204.37c-6,.62-13.66,7-15,17.57,6.37-1.79,10.53-4.29,11.91-6.13C287.9,211.86,288,204.37,288,204.37Z" style="fill:#263238"></path><path d="M338.37,153.54c-.44.8-.77,1.39-1.16,2.05s-.76,1.25-1.15,1.87c-.77,1.23-1.59,2.42-2.42,3.61-1.67,2.35-3.43,4.65-5.32,6.84-.92,1.11-1.91,2.19-2.87,3.27s-2,2.11-3.07,3.12a80.21,80.21,0,0,1-6.63,5.82l-.5.41a5.24,5.24,0,0,1-2.11,1,55.28,55.28,0,0,1-8.35,1.26,59.12,59.12,0,0,1-8.2.05,68.26,68.26,0,0,1-8-1c-1.32-.25-2.62-.54-3.92-.86s-2.53-.7-3.94-1.18a3.84,3.84,0,0,1,1.07-7.47h.37c1.05,0,2.31-.07,3.48-.13s2.38-.14,3.56-.21c2.36-.18,4.7-.42,7-.75s4.54-.75,6.73-1.24a61.06,61.06,0,0,0,6.32-1.85l-2.61,1.43c1.73-1.76,3.44-3.54,5.07-5.44s3.22-3.84,4.74-5.85,3-4.05,4.44-6.15c.72-1,1.41-2.09,2.1-3.13l1-1.57.92-1.45.2-.31a7.69,7.69,0,0,1,13.24,7.81Z" style="fill:#4285F4"></path><path d="M338.37,153.54c-.44.8-.77,1.39-1.16,2.05s-.76,1.25-1.15,1.87c-.77,1.23-1.59,2.42-2.42,3.61-1.67,2.35-3.43,4.65-5.32,6.84-.92,1.11-1.91,2.19-2.87,3.27s-2,2.11-3.07,3.12a80.21,80.21,0,0,1-6.63,5.82l-.5.41a5.24,5.24,0,0,1-2.11,1,55.28,55.28,0,0,1-8.35,1.26,59.12,59.12,0,0,1-8.2.05,68.26,68.26,0,0,1-8-1c-1.32-.25-2.62-.54-3.92-.86s-2.53-.7-3.94-1.18a3.84,3.84,0,0,1,1.07-7.47h.37c1.05,0,2.31-.07,3.48-.13s2.38-.14,3.56-.21c2.36-.18,4.7-.42,7-.75s4.54-.75,6.73-1.24a61.06,61.06,0,0,0,6.32-1.85l-2.61,1.43c1.73-1.76,3.44-3.54,5.07-5.44s3.22-3.84,4.74-5.85,3-4.05,4.44-6.15c.72-1,1.41-2.09,2.1-3.13l1-1.57.92-1.45.2-.31a7.69,7.69,0,0,1,13.24,7.81Z" style="opacity:0.2"></path><path d="M290.42,170.65s3,9.78.43,13.14a133.77,133.77,0,0,1-19.18-5.17s-3.09,5-9.72.63,0-9.38,5.15-9.72S290.42,170.65,290.42,170.65Z"></path><path d="M220.14,264s12.9-38.82-13.69-63.4c-24.79-22.92-58.6-13.47-65.85-11.07a.93.93,0,0,0-.23,1.66,20.89,20.89,0,0,0,10,3s32.14-12,55.9,20.42c8.51,11.61,10.5,39.94,10.2,42.49A20.18,20.18,0,0,0,220.14,264Z" style="fill:#0F9D58"></path><path d="M250.55,210c-2.1-6-3.82-12-4.66-15a1.68,1.68,0,0,0-2.45-1l-26.05,14.8a1.68,1.68,0,0,0-.49,2.49L220,215.2a1.68,1.68,0,0,0,2.27.35h0a1.68,1.68,0,0,1,2.59,1l1.17,5.47a1.68,1.68,0,0,0,2.42,1.14l21.3-11.15A1.68,1.68,0,0,0,250.55,210Z" style="fill:#263238"></path><path d="M250.55,210c-2.1-6-3.82-12-4.66-15a1.68,1.68,0,0,0-2.45-1l-26.05,14.8a1.68,1.68,0,0,0-.49,2.49L220,215.2a1.68,1.68,0,0,0,2.27.35h0a1.68,1.68,0,0,1,2.59,1l1.17,5.47a1.68,1.68,0,0,0,2.42,1.14l21.3-11.15A1.68,1.68,0,0,0,250.55,210Z" style="opacity:0.30000000000000004"></path><path d="M290.86,325.48l-.72-6c5.74-.69,10.08-3,12.87-6.85a17.79,17.79,0,0,0,2.9-13.46l5.89-1.16a23.59,23.59,0,0,1-3.93,18.15C304.1,321.38,298.22,324.59,290.86,325.48Z" style="fill:#F4B400"></path><path d="M357.6,322.94a43.51,43.51,0,1,1-57.53,21.86A43.51,43.51,0,0,1,357.6,322.94Zm-30.1,67a30,30,0,1,0-15.08-39.62A30,30,0,0,0,327.5,390Z" style="fill:#F4B400"></path><path d="M360.8,315.81A51.32,51.32,0,1,1,293,341.6,51.34,51.34,0,0,1,360.8,315.81Zm-35.5,79.07a35.36,35.36,0,1,0-17.78-46.73A35.35,35.35,0,0,0,325.3,394.88Z" style="fill:#263238"></path><path d="M339.46,414.51a1,1,0,0,1-1-1h0a1,1,0,0,1,1-1h0a1,1,0,0,1,1,1h0a1,1,0,0,1-1,1h0Zm5-1.21a1,1,0,0,1,.88-1.11h0a1,1,0,0,1,1.11.89h0a1,1,0,0,1-.88,1.1h-.12A1,1,0,0,1,344.49,413.3Zm-11.16.81a1,1,0,0,1-.87-1.11h0a1,1,0,0,1,1.12-.87h0a1,1,0,0,1,.87,1.12h0a1,1,0,0,1-1,.87h-.13Zm17.11-1.73a1,1,0,0,1,.75-1.2h0a1,1,0,0,1,1.2.74h0a1,1,0,0,1-.74,1.21h0a.93.93,0,0,1-.23,0h0A1,1,0,0,1,350.44,412.38Zm-23.15.61a1,1,0,0,1-.73-1.22h0a1,1,0,0,1,1.21-.72h0a1,1,0,0,1,.73,1.21h0a1,1,0,0,1-1,.76h0Zm29-2.22a1,1,0,0,1,.6-1.28h0a1,1,0,0,1,1.28.6h0a1,1,0,0,1-.6,1.28h0a1,1,0,0,1-.34.06h0A1,1,0,0,1,356.25,410.77Zm-34.82.38h0a1,1,0,0,1-.58-1.29h0a1,1,0,0,1,1.29-.58h0a1,1,0,0,1,.58,1.29h0a1,1,0,0,1-.94.65h0A1,1,0,0,1,321.43,411.15Zm40.4-2.66a1,1,0,0,1,.44-1.35h0a1,1,0,0,1,1.34.45h0a1,1,0,0,1-.44,1.34h0a1,1,0,0,1-.45.11h0A1,1,0,0,1,361.83,408.49Zm-46,.15a1,1,0,0,1-.43-1.35h0a1,1,0,0,1,1.35-.42h0a1,1,0,0,1,.43,1.34h0a1,1,0,0,1-.89.54h0A1,1,0,0,1,315.82,408.64Zm51.28-3.08a1,1,0,0,1,.28-1.38h0a1,1,0,0,1,1.39.28h0a1,1,0,0,1-.29,1.38h0a1,1,0,0,1-.55.17h0A1,1,0,0,1,367.1,405.56Zm-56.55-.07a1,1,0,0,1-.27-1.39h0a1,1,0,0,1,1.39-.26h0a1,1,0,0,1,.27,1.39h0a1,1,0,0,1-.83.44h0A1,1,0,0,1,310.55,405.49ZM372,402a1,1,0,0,1,.11-1.41h0a1,1,0,0,1,1.41.12h0a1,1,0,0,1-.11,1.41h0a1,1,0,0,1-.65.24h0A1,1,0,0,1,372,402Zm-66.31-.29h0a1,1,0,0,1-.1-1.41h0a1,1,0,0,1,1.41-.1h0a1,1,0,0,1,.1,1.41h0a1,1,0,0,1-.76.34h0A1,1,0,0,1,305.68,401.74ZM376.42,398a1,1,0,0,1-.05-1.41h0a1,1,0,0,1,1.41-.06h0a1,1,0,0,1,.05,1.42h0a1,1,0,0,1-.74.32h0A1,1,0,0,1,376.42,398Zm-75.13-.52h0a1,1,0,0,1,.07-1.41h0a1,1,0,0,1,1.42.07h0a1,1,0,0,1-.08,1.41h0a1,1,0,0,1-.67.26h0A1,1,0,0,1,301.29,397.43Zm79-4.06a1,1,0,0,1-.22-1.4h0a1,1,0,0,1,1.39-.22h0a1,1,0,0,1,.23,1.39h0a1,1,0,0,1-.81.42h0A1,1,0,0,1,380.34,393.37Zm-82.89-.73a1,1,0,0,1,.24-1.4h0a1,1,0,0,1,1.39.24h0a1,1,0,0,1-.24,1.39h0a.93.93,0,0,1-.57.19h0A1,1,0,0,1,297.45,392.64Zm86.23-4.29a1,1,0,0,1-.38-1.36h0a1,1,0,0,1,1.36-.38h0A1,1,0,0,1,385,388h0a1,1,0,0,1-.87.51h0A1,1,0,0,1,383.68,388.35Zm-89.48-.93h0a1,1,0,0,1,.4-1.36h0a1,1,0,0,1,1.36.4h0a1,1,0,0,1-.4,1.36h0a1,1,0,0,1-.48.12h0A1,1,0,0,1,294.2,387.42ZM386.41,383a1,1,0,0,1-.54-1.31h0a1,1,0,0,1,1.31-.54h0a1,1,0,0,1,.54,1.31h0a1,1,0,0,1-.93.62h0A1,1,0,0,1,386.41,383Zm-94.82-1.12a1,1,0,0,1,.56-1.3h0a1,1,0,0,1,1.3.56h0a1,1,0,0,1-.56,1.29h0a1,1,0,0,1-.37.08h0A1,1,0,0,1,291.59,381.86Zm96.91-4.53a1,1,0,0,1-.7-1.24h0a1,1,0,0,1,1.24-.69h0a1,1,0,0,1,.69,1.23h0a1,1,0,0,1-1,.73h0A1.24,1.24,0,0,1,388.5,377.33ZM289.66,376h0a1,1,0,0,1,.7-1.23h0a1,1,0,0,1,1.23.71h0a1,1,0,0,1-.71,1.23h0a1.15,1.15,0,0,1-.26,0h0A1,1,0,0,1,289.66,376Zm100.24-4.56a1,1,0,0,1-.84-1.15h0a1,1,0,0,1,1.15-.83h0a1,1,0,0,1,.83,1.14h0a1,1,0,0,1-1,.85h-.15ZM288.42,370a1,1,0,0,1,.84-1.13h0a1,1,0,0,1,1.14.85h0a1,1,0,0,1-.85,1.13h-.14A1,1,0,0,1,288.42,370Zm102.17-4.53a1,1,0,0,1-1-1h0a1,1,0,0,1,1-1h0a1,1,0,0,1,1,1h0a1,1,0,0,1-1,1h0ZM287.9,363.89h0a1,1,0,0,1,1-1h0a1,1,0,0,1,1,1h0a1,1,0,0,1-1,1h0A1,1,0,0,1,287.9,363.89Zm101.59-5.35h0a1,1,0,0,1,.91-1.08h0a1,1,0,0,1,1.08.91h0a1,1,0,0,1-.91,1.08h-.09A1,1,0,0,1,389.49,358.54Zm-100.48.3a1,1,0,0,1-.9-1.09h0a1,1,0,0,1,1.09-.9h0a1,1,0,0,1,.9,1.09h0a1,1,0,0,1-1,.91H289Zm99.64-6.15a1,1,0,0,1,.78-1.18h0a1,1,0,0,1,1.18.78h0a1,1,0,0,1-.78,1.18h0a.68.68,0,0,1-.2,0h0A1,1,0,0,1,388.65,352.69Zm-98.83.18a1,1,0,0,1-.77-1.19h0a1,1,0,0,1,1.19-.77h0a1,1,0,0,1,.77,1.19h0a1,1,0,0,1-1,.79h0ZM387.13,347a1,1,0,0,1,.64-1.27h0a1,1,0,0,1,1.26.64h0a1,1,0,0,1-.64,1.26h0a.84.84,0,0,1-.31.05h0A1,1,0,0,1,387.13,347Zm-95.8,0a1,1,0,0,1-.62-1.27h0a1,1,0,0,1,1.27-.62h0a1,1,0,0,1,.62,1.28h0a1,1,0,0,1-.94.67h0A1,1,0,0,1,291.33,347ZM385,341.5a1,1,0,0,1,.48-1.33h0a1,1,0,0,1,1.33.48h0a1,1,0,0,1-.48,1.33h0a1.07,1.07,0,0,1-.43.09h0A1,1,0,0,1,385,341.5Zm-91.43-.08a1,1,0,0,1-.47-1.34h0a1,1,0,0,1,1.33-.46h0a1,1,0,0,1,.47,1.33h0a1,1,0,0,1-.9.57h0A.94.94,0,0,1,293.52,341.42Zm88.61-5.12h0a1,1,0,0,1,.32-1.38h0a1,1,0,0,1,1.37.33h0a1,1,0,0,1-.32,1.37h0a1,1,0,0,1-.52.15h0A1,1,0,0,1,382.13,336.3Zm-85.79-.2a1,1,0,0,1-.3-1.38h0a1,1,0,0,1,1.38-.31h0a1,1,0,0,1,.3,1.38h0a1,1,0,0,1-.84.46h0A1.08,1.08,0,0,1,296.34,336.1Zm82.39-4.63a1,1,0,0,1,.16-1.4h0a1,1,0,0,1,1.4.16h0a1,1,0,0,1-.16,1.4h0a1,1,0,0,1-.62.22h0A1,1,0,0,1,378.73,331.47Zm-79-.33a1,1,0,0,1-.14-1.4h0a1,1,0,0,1,1.41-.14h0a1,1,0,0,1,.14,1.4h0a1,1,0,0,1-.78.37h0A1,1,0,0,1,299.78,331.14Zm75-4.06a1,1,0,0,1,0-1.41h0a1,1,0,0,1,1.42,0h0a1,1,0,0,1,0,1.41h0a1,1,0,0,1-.72.3h0A1,1,0,0,1,374.77,327.08Zm-71-.45a1,1,0,0,1,0-1.41h0a1,1,0,0,1,1.42,0h0a1,1,0,0,1,0,1.41h0a1,1,0,0,1-.7.28h0A1,1,0,0,1,303.78,326.63Zm66.54-3.43a1,1,0,0,1-.18-1.41h0a1,1,0,0,1,1.41-.18h0a1,1,0,0,1,.18,1.41h0a1,1,0,0,1-.8.39h0A1,1,0,0,1,370.32,323.2Zm-62-.56a1,1,0,0,1,.2-1.41h0a1,1,0,0,1,1.4.2h0a1,1,0,0,1-.2,1.4h0a1,1,0,0,1-.6.2h0A1,1,0,0,1,308.29,322.64Zm57.16-2.77h0a1,1,0,0,1-.35-1.37h0a1,1,0,0,1,1.37-.35h0a1,1,0,0,1,.35,1.37h0a1,1,0,0,1-.86.49h0A1,1,0,0,1,365.45,319.87Zm-52.2-.67a1,1,0,0,1,.36-1.37h0a1,1,0,0,1,1.36.36h0a1,1,0,0,1-.36,1.37h0a1,1,0,0,1-.5.14h0A1,1,0,0,1,313.25,319.2Zm47-2.06-.07,0h0l-.07,0h0a1,1,0,0,1-.5-1.32h0a1,1,0,0,1,1.32-.51h0l.07,0h0l.06,0h0a1,1,0,0,1,.5,1.33h0a1,1,0,0,1-.91.59h0A1,1,0,0,1,360.21,317.14Zm-41.64-.77a1,1,0,0,1,.52-1.31h0a1,1,0,0,1,1.31.52h0a1,1,0,0,1-.52,1.31h0a.88.88,0,0,1-.39.08h0A1,1,0,0,1,318.57,316.37Zm36-1.38a1,1,0,0,1-.66-1.25h0a1,1,0,0,1,1.25-.66h0a1,1,0,0,1,.66,1.25h0a1,1,0,0,1-1,.71h0A1,1,0,0,1,354.55,315Zm-30.36-.8a1,1,0,0,1,.67-1.24h0a1,1,0,0,1,1.24.67h0a1,1,0,0,1-.67,1.24h0a.9.9,0,0,1-.28,0h0A1,1,0,0,1,324.19,314.19Zm24.62-.62a1,1,0,0,1-.8-1.16h0a1,1,0,0,1,1.17-.8h0a1,1,0,0,1,.8,1.16h0a1,1,0,0,1-1,.82h0A.62.62,0,0,1,348.81,313.57ZM330,312.69a1,1,0,0,1,.81-1.16h0a1,1,0,0,1,1.16.81h0a1,1,0,0,1-.81,1.16H331A1,1,0,0,1,330,312.69Zm12.93.16h0a1,1,0,0,1-.93-1.07h0a1,1,0,0,1,1.06-.93h0a1,1,0,0,1,.93,1.06h0a1,1,0,0,1-1,.94H343Zm-7-1a1,1,0,0,1,.95-1.05h0a1,1,0,0,1,1.05.94h0a1,1,0,0,1-.94,1.05H337A1,1,0,0,1,336,311.88Z" style="fill:#263238"></path><path d="M136.06,321.5a1,1,0,0,1,1-1h0a1,1,0,0,1,1,1h0a1,1,0,0,1-1,1h0A1,1,0,0,1,136.06,321.5Zm-5.07.81a1,1,0,0,1-.92-1.09h0a1,1,0,0,1,1.08-.91h0a1,1,0,0,1,.91,1.08h0a1,1,0,0,1-1,.92H131Zm11-1.2a1,1,0,0,1,.85-1.13h0a1,1,0,0,1,1.13.85h0a1,1,0,0,1-.85,1.13H143A1,1,0,0,1,142,321.11Zm-17.08.34h0a1,1,0,0,1-.79-1.18h0a1,1,0,0,1,1.18-.78h0a1,1,0,0,1,.78,1.17h0a1,1,0,0,1-1,.81h0Zm23-1.4a1,1,0,0,1,.71-1.22h0a1,1,0,0,1,1.22.72h0a1,1,0,0,1-.72,1.22h0a1,1,0,0,1-.25,0h0A1,1,0,0,1,147.93,320.05ZM119,319.92h0a1,1,0,0,1-.65-1.26h0a1,1,0,0,1,1.26-.65h0a1,1,0,0,1,.65,1.26h0a1,1,0,0,1-1,.7h0A1,1,0,0,1,119,319.92Zm34.63-1.58a1,1,0,0,1,.57-1.29h0a1,1,0,0,1,1.29.57h0a1,1,0,0,1-.57,1.3h0a1.13,1.13,0,0,1-.36.06h0A1,1,0,0,1,153.67,318.34Zm-40.33-.6a1,1,0,0,1-.5-1.32h0a1,1,0,0,1,1.32-.51h0a1,1,0,0,1,.5,1.32h0a1,1,0,0,1-.91.6h0A1,1,0,0,1,113.34,317.74ZM159.18,316a1,1,0,0,1,.43-1.35h0a1,1,0,0,1,1.35.43h0a1,1,0,0,1-.43,1.35h0a1.11,1.11,0,0,1-.46.11h0A1,1,0,0,1,159.18,316Zm-51.26-1.06h0a1,1,0,0,1-.35-1.37h0a1,1,0,0,1,1.37-.35h0a1,1,0,0,1,.35,1.37h0a1,1,0,0,1-.86.49h0A1,1,0,0,1,107.92,314.94Zm56.48-1.88a1,1,0,0,1,.28-1.39h0a1,1,0,0,1,1.38.28h0a1,1,0,0,1-.27,1.39h0a1,1,0,0,1-.56.16h0A1,1,0,0,1,164.4,313.06Zm-61.55-1.5a1,1,0,0,1-.2-1.4h0a1,1,0,0,1,1.4-.2h0a1,1,0,0,1,.2,1.4h0a1,1,0,0,1-.81.4h0A1,1,0,0,1,102.85,311.56Zm66.41-2a1,1,0,0,1,.12-1.41h0a1,1,0,0,1,1.41.13h0a1,1,0,0,1-.12,1.4h0a1,1,0,0,1-.65.24h0A1,1,0,0,1,169.26,309.55Zm-71.08-1.93a1,1,0,0,1,0-1.41h0a1,1,0,0,1,1.41,0h0a1,1,0,0,1,0,1.41h0a1,1,0,0,1-.73.32h0A1,1,0,0,1,98.18,307.62Zm75.51-2.1a1,1,0,0,1,0-1.41h0a1,1,0,0,1,1.42,0h0a1,1,0,0,1,0,1.42h0a1,1,0,0,1-.73.31h0A1,1,0,0,1,173.69,305.52ZM94,303.19h0a1,1,0,0,1,.11-1.41h0a1,1,0,0,1,1.41.12h0a1,1,0,0,1-.11,1.41h0a1,1,0,0,1-.65.23h0A1,1,0,0,1,94,303.19ZM177.65,301a1,1,0,0,1-.2-1.4h0a1,1,0,0,1,1.4-.2h0a1,1,0,0,1,.2,1.4h0a1,1,0,0,1-.8.4h0A1,1,0,0,1,177.65,301Zm-87.33-2.71a1,1,0,0,1,.28-1.39h0a1,1,0,0,1,1.38.28h0a1,1,0,0,1-.27,1.39h0a1,1,0,0,1-.56.17h0A1,1,0,0,1,90.32,298.31Zm90.74-2.21a1,1,0,0,1-.35-1.37h0a1,1,0,0,1,1.37-.35h0a1,1,0,0,1,.35,1.37h0a1,1,0,0,1-.86.49h0A1.06,1.06,0,0,1,181.06,296.1Zm-93.84-3.05a1,1,0,0,1,.43-1.34h0a1,1,0,0,1,1.35.43h0a1,1,0,0,1-.43,1.34h0a1,1,0,0,1-.46.12h0A1,1,0,0,1,87.22,293.05Zm96.69-2.22a1,1,0,0,1-.5-1.32h0a1,1,0,0,1,1.32-.5h0a1,1,0,0,1,.5,1.32h0a1,1,0,0,1-.91.59h0A1,1,0,0,1,183.91,290.83Zm-99.18-3.34a1,1,0,0,1,.58-1.29h0a1,1,0,0,1,1.29.57h0a1,1,0,0,1-.58,1.29h0a.92.92,0,0,1-.36.07h0A1,1,0,0,1,84.73,287.49Zm101.43-2.21a1,1,0,0,1-.65-1.26h0a1,1,0,0,1,1.26-.65h0a1,1,0,0,1,.64,1.26h0a1,1,0,0,1-.95.7h0A1,1,0,0,1,186.16,285.28Zm-103.29-3.6h0a1,1,0,0,1,.72-1.22h0a1,1,0,0,1,1.22.71h0a1,1,0,0,1-.72,1.22h0a1.09,1.09,0,0,1-.25,0h0A1,1,0,0,1,82.87,281.68Zm104.9-2.17a1,1,0,0,1-.78-1.18h0a1,1,0,0,1,1.17-.78h0a1,1,0,0,1,.79,1.18h0a1,1,0,0,1-1,.8h0ZM81.67,275.7a1,1,0,0,1,.85-1.14h0a1,1,0,0,1,1.13.85h0a1,1,0,0,1-.85,1.13h-.14A1,1,0,0,1,81.67,275.7Zm107.06-2.1a1,1,0,0,1-.91-1.08h0a1,1,0,0,1,1.08-.91h0a1,1,0,0,1,.91,1.08h0a1,1,0,0,1-1,.91h-.08Zm-107.58-4a1,1,0,0,1,1-1h0a1,1,0,0,1,1,1h0a1,1,0,0,1-1,1h0A1,1,0,0,1,81.15,269.62Zm106.83-3a1,1,0,0,1,1-1h0a1,1,0,0,1,1,1h0a1,1,0,0,1-1,1h0A1,1,0,0,1,188,266.64Zm-105.75-2a1,1,0,0,1-.91-1.08h0a1,1,0,0,1,1.08-.91h0a1,1,0,0,1,.91,1.08h0a1,1,0,0,1-1,.91h-.09Zm105.26-3.81h0a1,1,0,0,1,.85-1.13h0a1,1,0,0,1,1.13.85h0a1,1,0,0,1-.85,1.13h-.14A1,1,0,0,1,187.49,260.79ZM83,258.65a1,1,0,0,1-.78-1.17h0a1,1,0,0,1,1.17-.79h0a1,1,0,0,1,.79,1.18h0a1,1,0,0,1-1,.8h0A.71.71,0,0,1,83,258.65ZM186.35,255a1,1,0,0,1,.72-1.22h0a1,1,0,0,1,1.21.72h0a1,1,0,0,1-.72,1.22h0a1,1,0,0,1-.25,0h0A1,1,0,0,1,186.35,255Zm-102-2.2a1,1,0,0,1-.64-1.26h0a1,1,0,0,1,1.25-.65h0a1,1,0,0,1,.65,1.26h0a1,1,0,0,1-.95.69h0A1.1,1.1,0,0,1,84.34,252.83Zm100.22-3.4a1,1,0,0,1,.58-1.29h0a1,1,0,0,1,1.3.58h0a1,1,0,0,1-.58,1.28h0a.92.92,0,0,1-.36.07h0A1,1,0,0,1,184.56,249.43Zm-98.18-2.24a1,1,0,0,1-.51-1.32h0a1,1,0,0,1,1.32-.5h0a1,1,0,0,1,.51,1.32h0a1,1,0,0,1-.92.59h0A1,1,0,0,1,86.38,247.19Zm95.79-3.13a1,1,0,0,1,.43-1.35h0a1,1,0,0,1,1.35.43h0a1,1,0,0,1-.43,1.35h0a1,1,0,0,1-.46.11h0A1,1,0,0,1,182.17,244.06ZM89,241.82a1,1,0,0,1-.36-1.37h0a1,1,0,0,1,1.37-.36h0a1,1,0,0,1,.36,1.37h0a1,1,0,0,1-.87.5h0A1,1,0,0,1,89,241.82ZM179.2,239a1,1,0,0,1,.28-1.39h0a1,1,0,0,1,1.38.28h0a1,1,0,0,1-.28,1.39h0a1,1,0,0,1-.55.17h0A1,1,0,0,1,179.2,239Zm-87-2.22a1,1,0,0,1-.2-1.4h0a1,1,0,0,1,1.4-.2h0a1,1,0,0,1,.2,1.4h0a1,1,0,0,1-.8.4h0A1,1,0,0,1,92.24,236.77Zm83.43-2.48a1,1,0,0,1,.12-1.41h0a1,1,0,0,1,1.41.12h0a1,1,0,0,1-.12,1.41h0a1,1,0,0,1-.64.23h0A1,1,0,0,1,175.67,234.29ZM96,232.11a1,1,0,0,1,0-1.41h0a1,1,0,0,1,1.42,0h0a1,1,0,0,1,0,1.41h0a1,1,0,0,1-.73.32h0A1,1,0,0,1,96,232.11Zm75.63-2.1h0a1,1,0,0,1,0-1.42h0a1,1,0,0,1,1.42,0h0a1,1,0,0,1,0,1.41h0a1,1,0,0,1-.72.31h0A1,1,0,0,1,171.64,230Zm-71.35-2.1a1,1,0,0,1,.12-1.41h0a1,1,0,0,1,1.41.11h0a1,1,0,0,1-.12,1.41h0a1,1,0,0,1-.65.24h0A1,1,0,0,1,100.29,227.91Zm66.86-1.7a1,1,0,0,1-.2-1.4h0a1,1,0,0,1,1.4-.2h0a1,1,0,0,1,.2,1.41h0a1,1,0,0,1-.8.39h0A1,1,0,0,1,167.15,226.21Zm-62.14-2a1,1,0,0,1,.27-1.39h0a1,1,0,0,1,1.39.28h0a1,1,0,0,1-.28,1.39h0a1,1,0,0,1-.55.17h0A1,1,0,0,1,105,224.22ZM162.27,223h0a1,1,0,0,1-.36-1.37h0a1,1,0,0,1,1.37-.35h0a1,1,0,0,1,.35,1.36h0a1,1,0,0,1-.86.5h0A1,1,0,0,1,162.27,223Zm-52.16-1.87a1,1,0,0,1,.43-1.35h0a1,1,0,0,1,1.35.43h0a1,1,0,0,1-.43,1.35h0a1,1,0,0,1-.46.11h0A1,1,0,0,1,110.11,221.08Zm46.94-.83-.08,0h0l-.06,0h0a1,1,0,0,1-.51-1.32h0a1,1,0,0,1,1.32-.5h0l.07,0h0l.08,0h0a1,1,0,0,1,.5,1.32h0a1,1,0,0,1-.92.6h0A1,1,0,0,1,157.05,220.25Zm-41.52-1.72a1,1,0,0,1,.57-1.29h0a1,1,0,0,1,1.3.58h0a1,1,0,0,1-.58,1.29h0a1.13,1.13,0,0,1-.36.06h0A1,1,0,0,1,115.53,218.53Zm35.88-.44a1,1,0,0,1-.65-1.26h0a1,1,0,0,1,1.26-.64h0a1,1,0,0,1,.65,1.25h0a1,1,0,0,1-1,.7h0A1,1,0,0,1,151.41,218.09ZM121.2,216.6a1,1,0,0,1,.71-1.22h0a1,1,0,0,1,1.22.72h0a1,1,0,0,1-.71,1.22h0a1.15,1.15,0,0,1-.26,0h0A1,1,0,0,1,121.2,216.6Zm24.52,0a1,1,0,0,1-.78-1.18h0a1,1,0,0,1,1.17-.79h0a1,1,0,0,1,.79,1.18h0a1,1,0,0,1-1,.8h-.2ZM127,215.31a1,1,0,0,1,.85-1.13h0A1,1,0,0,1,129,215h0a1,1,0,0,1-.85,1.13H128A1,1,0,0,1,127,215.31Zm12.86.5h0a1,1,0,0,1-.91-1.08h0a1,1,0,0,1,1.08-.91h0a1,1,0,0,1,.91,1.07h0a1,1,0,0,1-1,.92h-.09Zm-6.9-1.13a1,1,0,0,1,1-1h0a1,1,0,0,1,1,1h0a1,1,0,0,1-1,1h0A1,1,0,0,1,133,214.68Z" style="fill:#263238"></path><path d="M348.17,343.94a20.49,20.49,0,1,1-27.09,10.3A20.48,20.48,0,0,1,348.17,343.94Z" style="fill:#E0E0E0"></path><path d="M285.64,308.16a1,1,0,0,1-.38-.07,1,1,0,0,1-.32-.22.87.87,0,0,1-.22-.32,1.09,1.09,0,0,1-.08-.39,1,1,0,0,1,.3-.7,1,1,0,0,1,1.09-.22.87.87,0,0,1,.32.22,1,1,0,0,1,.22.32,1,1,0,0,1,.07.38,1,1,0,0,1-.07.39,1.07,1.07,0,0,1-.54.54A1.07,1.07,0,0,1,285.64,308.16Z" style="fill:#263238"></path><path d="M339.1,383.13h0a1,1,0,0,1-1.08.92h0a1,1,0,0,1-.92-1.08h0a0,0,0,0,1,0,0h0a0,0,0,0,0,0,0h0a1,1,0,0,1-1.16.81h0a1,1,0,0,1-.81-1.16h0a1,1,0,0,1-1.23.68h0a1,1,0,0,1-.69-1.23h0a1,1,0,0,1-1.3.56h0a1,1,0,0,1-.56-1.29h0a1,1,0,0,1-1.35.43h0a1,1,0,0,1-.43-1.34h0a1,1,0,0,1-1.38.3h0a1,1,0,0,1-.3-1.38h0l0,0h0a1,1,0,0,1-1.41-.08h0a1,1,0,0,1,0-1.38h0a1,1,0,0,1-1.38-.1h0a1,1,0,0,1,.05-1.39h0a1,1,0,0,1-1.38-.1h0a1,1,0,0,1,.05-1.39h0a1,1,0,0,1-1.39-.1h0a1,1,0,0,1,.06-1.39h0a1,1,0,0,1-1.39-.1h0a1,1,0,0,1,.05-1.39h0a1,1,0,0,1-1.39-.09h0a1,1,0,0,1,.05-1.39h0a1,1,0,0,1-1.38-.1h0a1,1,0,0,1,0-1.38h0a1,1,0,0,1-1.38-.11h0a1,1,0,0,1,.08-1.41h0a1,1,0,0,1-1.41-.08h0a1,1,0,0,1,.05-1.39h0a1,1,0,0,1-1.38-.1h0a1,1,0,0,1,.05-1.39h0a1,1,0,0,1-1.39-.09h0a1,1,0,0,1,0-1.39h0a1,1,0,0,1-1.38-.1h0a1,1,0,0,1,.05-1.38h0a1,1,0,0,1-1.38-.11h0a1,1,0,0,1,.05-1.39h0a1,1,0,0,1-1.38-.1h0a1,1,0,0,1,0-1.39h0a1,1,0,0,1-1.39-.09h0a1,1,0,0,1,.05-1.4h0a1,1,0,0,1-1.39-.09h0a1,1,0,0,1,.06-1.4h0a1,1,0,0,1-1.39-.09h0a1,1,0,0,1,.06-1.39h0a1,1,0,0,1-1.39-.1h0a1,1,0,0,1,.07-1.41h0a1,1,0,0,1-1.41-.08h0a1,1,0,0,1,.05-1.39h0a1,1,0,0,1-1.38-.09h0a1,1,0,0,1,.05-1.39h0a1,1,0,0,1-1.39-.1h0a1,1,0,0,1,.05-1.38h0a1,1,0,0,1-1.38-.11h0a1,1,0,0,1,0-1.38h0a1,1,0,0,1-1.38-.11h0a1,1,0,0,1,.05-1.39h0a1,1,0,0,1-1.38-.09h0a1,1,0,0,1,.07-1.42h0a1,1,0,0,1-1.41-.07h0a1,1,0,0,1,.08-1.41h0a1,1,0,0,1-1.41-.08h0a1,1,0,0,1,0-1.38h0a1,1,0,0,1-1.38-.11h0a1,1,0,0,1,.05-1.38h0a1,1,0,0,1-1.38-.11h0a1,1,0,0,1,0-1.39h0a1,1,0,0,1-1.39-.09h0a1,1,0,0,1,.06-1.39h0a1,1,0,0,1-1.39-.1h0a1,1,0,0,1,.05-1.39h0a1,1,0,0,1-1.39-.1h0a1,1,0,0,1,.05-1.38h0a1,1,0,0,1-1.38-.11h0a1,1,0,0,1,0-1.38h0a1,1,0,0,1-1.38-.1h0a1,1,0,0,1,.06-1.4h0a1,1,0,0,1-1.39-.09h0a1,1,0,0,1,.07-1.41h0a1,1,0,0,1-1.41-.08h0a1,1,0,0,1,.08-1.41h0a1,1,0,0,1-1.41-.08h0a1,1,0,0,1,0-1.39h0a1,1,0,0,1-1.39-.1h0a1,1,0,0,1,.05-1.38h0a1,1,0,0,1-1.38-.1h0a1,1,0,0,1,.05-1.4h0a1,1,0,0,1-1.39-.09h0a1,1,0,0,1,.06-1.39h0a1,1,0,0,1-1.39-.1h0a1,1,0,0,1,.08-1.41h0a1,1,0,0,1,1.41.07h0a1,1,0,0,1-.06,1.4h0a1,1,0,0,1,1.39.09h0a1,1,0,0,1,0,1.39h0a1,1,0,0,1,1.39.1h0a1,1,0,0,1-.05,1.38h0a1,1,0,0,1,1.38.11h0a1,1,0,0,1-.05,1.39h0a1,1,0,0,1,1.39.1h0a1,1,0,0,1-.08,1.41h0a1,1,0,0,1,1.41.07h0a1,1,0,0,1-.08,1.42h0a1,1,0,0,1,1.42.07h0a1,1,0,0,1-.06,1.39h0a1,1,0,0,1,1.39.1h0a1,1,0,0,1,0,1.38h0a1,1,0,0,1,1.38.11h0a1,1,0,0,1-.05,1.38h0a1,1,0,0,1,1.38.1h0a1,1,0,0,1-.05,1.4h0a1,1,0,0,1,1.39.09h0a1,1,0,0,1-.06,1.39h0a1,1,0,0,1,1.39.1h0a1,1,0,0,1-.05,1.39h0a1,1,0,0,1,1.39.1h0a1,1,0,0,1,0,1.38h0a1,1,0,0,1,1.38.11h0a1,1,0,0,1-.05,1.38h0a1,1,0,0,1,1.39.1h0a1,1,0,0,1-.08,1.42h0a1,1,0,0,1,1.41.07h0a1,1,0,0,1-.08,1.41h0a1,1,0,0,1,1.41.08h0a1,1,0,0,1-.05,1.39h0a1,1,0,0,1,1.39.1h0a1,1,0,0,1-.05,1.38h0a1,1,0,0,1,1.39.11h0a1,1,0,0,1-.05,1.38h0a1,1,0,0,1,1.38.1h0a1,1,0,0,1-.05,1.39h0a1,1,0,0,1,1.38.1h0a1,1,0,0,1-.05,1.39h0a1,1,0,0,1,1.39.1h0a1,1,0,0,1-.08,1.41h0a1,1,0,0,1,1.42.08h0a1,1,0,0,1-.06,1.39h0a1,1,0,0,1,1.39.09h0a1,1,0,0,1-.06,1.4h0a1,1,0,0,1,1.39.09h0a1,1,0,0,1-.05,1.39h0a1,1,0,0,1,1.39.1h0a1,1,0,0,1-.05,1.39h0a1,1,0,0,1,1.38.1h0a1,1,0,0,1-.05,1.39h0a1,1,0,0,1,1.39.1h0a1,1,0,0,1-.05,1.38h0a1,1,0,0,1,1.38.1h0a1,1,0,0,1,0,1.39h0a1,1,0,0,1,1.38.1h0a1,1,0,0,1-.06,1.39h0a1,1,0,0,1,1.39.1h0a1,1,0,0,1-.05,1.39h0a1,1,0,0,1,1.39.1h0a1,1,0,0,1-.08,1.41h0a1,1,0,0,1,1.41.08h0a1,1,0,0,1,0,1.38h0a1,1,0,0,1,1.38.1h0a1,1,0,0,1-.05,1.39h0a1,1,0,0,1,1.38.1h0a1,1,0,0,1-.05,1.39h0a1,1,0,0,1,1.39.1h0a1,1,0,0,1-.06,1.39h0a1,1,0,0,1,1.39.1h0a1,1,0,0,1-.05,1.39h0a1,1,0,0,1,1.39.09h0a1,1,0,0,1,0,1.39h0a1,1,0,0,1,1.38.1h0a1,1,0,0,1,0,1.39h0a1,1,0,0,1,1.38.1h0a1,1,0,0,1,.1,1.2h0a1,1,0,0,1,1.23-.12h0a1,1,0,0,1,.35,1.3h0a1,1,0,0,1,1.29-.35h0a1,1,0,0,1,.48,1.25h0a1,1,0,0,1,1.26-.47h0a1,1,0,0,1,.59,1.21h0a1,1,0,0,1,1.21-.6h0a1,1,0,0,1,.71,1.14h0a1,1,0,0,1,1.14-.71h0a1,1,0,0,1,.81,1.08h0a1,1,0,0,1,1.07-.84h0a1,1,0,0,1,.92,1h0a1,1,0,0,1,1-.92h0a1,1,0,0,1,1,.88h0a1,1,0,0,1,.89-1h0a1,1,0,0,1,1.09.79h0a1,1,0,0,1,.78-1.09h0a1,1,0,0,1,1.17.68h0a1,1,0,0,1,.67-1.17h0a1,1,0,0,1,1.22.56h0a1,1,0,0,1,.56-1.22h0a1,1,0,0,1,1.27.44h0a1,1,0,0,1,.44-1.28h0a1,1,0,0,1,1.31.32h0a1,1,0,0,1,.31-1.31h0a1,1,0,0,1,1.33.18h0a1,1,0,0,1,.18-1.33h0a1,1,0,0,1,1.36.06h0a1,1,0,0,1,0-1.36h0a1,1,0,0,1,1.35-.08h0a1,1,0,0,1-.09-1.34h0a1,1,0,0,1,1.34-.21h0a1,1,0,0,1-.22-1.33h0a1,1,0,0,1,1.3-.34h0a1,1,0,0,1-.34-1.3h0a1,1,0,0,1,1.26-.46h0a1,1,0,0,1-.46-1.26h0a1,1,0,0,1,1.21-.59h0a1,1,0,0,1-.58-1.21h0a1,1,0,0,1,1.16-.69h0a1,1,0,0,1-.71-1.15h0a1,1,0,0,1,1.07-.81h0a1,1,0,0,1-.81-1.07h0a1,1,0,0,1,1-.91h0a1,1,0,0,1-.91-1h0a1,1,0,0,1,.9-1h0a1,1,0,0,1-1-.9h0a1,1,0,0,1,.79-1.08h0a1,1,0,0,1-1.08-.8h0a1,1,0,0,1,.69-1.15h0a1,1,0,0,1-1.16-.69h0a1,1,0,0,1,.58-1.22h0a1,1,0,0,1-1.23-.57h0a1,1,0,0,1,.48-1.28h0a1,1,0,0,1-1.29-.44h0a1,1,0,0,1,.33-1.31h0a1,1,0,0,1-1.31-.31h0a1,1,0,0,1,.19-1.33h0a1,1,0,0,1-1.33-.2h0a1,1,0,0,1,.08-1.36h0a1,1,0,0,1-1.36,0h0a1,1,0,0,1-.07-1.34h0a1,1,0,0,1-1.34.06h0a1,1,0,0,1-.22-1.28h0a1,1,0,0,1-1.29.24h0a1,1,0,0,1-.37-1.34h0a1,1,0,0,1-1.36.33h0a1,1,0,0,1-.37-1.34h0a1,1,0,0,1-1.35.32h0a1,1,0,0,1-.37-1.34h0a1,1,0,0,1-1.35.33h0a1,1,0,0,1-.37-1.34h0a1,1,0,0,1-1.36.33h0a1,1,0,0,1-.37-1.34h0a1,1,0,0,1-1.35.32h0a1,1,0,0,1-.35-1.36h0a1,1,0,0,1,1.36-.36h0a1,1,0,0,1,.38,1.34h0a1,1,0,0,1,1.35-.33h0a1,1,0,0,1,.37,1.34h0a1,1,0,0,1,1.35-.32h0a1,1,0,0,1,.37,1.34h0a1,1,0,0,1,1.35-.33h0a1,1,0,0,1,.38,1.34h0a1,1,0,0,1,1.35-.33h0a1,1,0,0,1,.37,1.34h0a1,1,0,0,1,1.35-.32h0a1,1,0,0,1,.36,1.36h0a1,1,0,0,1,1.41-.14h0a1,1,0,0,1,.15,1.4h0a1,1,0,0,1,1.4,0h0a1,1,0,0,1,0,1.41h0l0,0h0a1,1,0,0,1,1.41.13h0a1,1,0,0,1-.14,1.41h0a1,1,0,0,1,1.39.27h0a1,1,0,0,1-.27,1.39h0a1,1,0,0,1,1.35.41h0a1,1,0,0,1-.41,1.35h0l0,0h0l0,0h0a1,1,0,0,1,1.31.54h0a1,1,0,0,1-.54,1.31h0a0,0,0,0,0,0,0h0a0,0,0,0,1,0,0h0a1,1,0,0,1,1.25.66h0a1,1,0,0,1-.66,1.25h0a1,1,0,0,1,1.18.78h0a1,1,0,0,1-.78,1.18h0a1,1,0,0,1,1.1.89h0a1,1,0,0,1-.89,1.1h0a1,1,0,0,1,1,1h0a1,1,0,0,1-1,1h0a1,1,0,0,1,.9,1.09h0a1,1,0,0,1-1.08.91h0a1,1,0,0,1,.79,1.16h0a1,1,0,0,1-1.17.8h0a1,1,0,0,1,.68,1.24h0a1,1,0,0,1-1.24.68h0a1,1,0,0,1,.55,1.3h0a1,1,0,0,1-1.3.56h0a1,1,0,0,1,.42,1.34h0a1,1,0,0,1-1.36.42h0a1,1,0,0,1,.29,1.39h0a1,1,0,0,1-1.38.28h0a1,1,0,0,1,.15,1.41h0a1,1,0,0,1-1.4.15h0a1,1,0,0,1,0,1.42h0a1,1,0,0,1-1.41,0h0l0,0h0l0,0h0a1,1,0,0,1-.12,1.41h0a1,1,0,0,1-1.41-.12h0a1,1,0,0,1-.26,1.39h0a1,1,0,0,1-1.39-.26h0a1,1,0,0,1-.4,1.35h0a1,1,0,0,1-1.35-.39h0a1,1,0,0,1-.53,1.31h0a1,1,0,0,1-1.31-.52h0a1,1,0,0,1-.65,1.26h0a1,1,0,0,1-1.26-.65h0a1,1,0,0,1-.77,1.18h0a1,1,0,0,1-1.19-.77h0a1,1,0,0,1-.88,1.11h0a1,1,0,0,1-1.1-.88h0a1,1,0,0,1-1,1h0A1,1,0,0,1,339.1,383.13Zm20.16-20.61Zm-19-22.08a1,1,0,0,1-.36-1.37h0a1,1,0,0,1,1.37-.35h0a1,1,0,0,1,.36,1.37h0a1,1,0,0,1-.87.49h0A.93.93,0,0,1,340.28,340.44Zm-1.72-1a1,1,0,0,1-.38-1.34h0a1,1,0,0,1-1.35.33h0a1,1,0,0,1-.37-1.34h0a1,1,0,0,1-1.35.32h0a1,1,0,0,1-.37-1.34h0a1,1,0,0,1-1.35.33h0A1,1,0,0,1,333,335h0a1,1,0,0,1,1.37-.35h0a1,1,0,0,1,.37,1.33h0a1,1,0,0,1,1.35-.32h0a1,1,0,0,1,.37,1.34h0a1,1,0,0,1,1.36-.33h0a1,1,0,0,1,.37,1.34h0a1,1,0,0,1,1.35-.33h0a1,1,0,0,1,.35,1.37h0a1,1,0,0,1-.86.5h0A1,1,0,0,1,338.56,339.43Zm-6.9-4.05a1,1,0,0,1-.37-1.34h0a1,1,0,0,1-1.35.32h0a1,1,0,0,1-.37-1.34h0a1,1,0,0,1-1.35.33h0a1,1,0,0,1-.38-1.33h0a1,1,0,0,1-1.35.32h0a1,1,0,0,1-.37-1.34h0a1,1,0,0,1-1.35.33h0a1,1,0,0,1-.36-1.37h0a1,1,0,0,1,1.37-.36h0a1,1,0,0,1,.38,1.34h0a1,1,0,0,1,1.35-.33h0a1,1,0,0,1,.37,1.34h0a1,1,0,0,1,1.35-.32h0a1,1,0,0,1,.37,1.34h0a1,1,0,0,1,1.35-.33h0a1,1,0,0,1,.37,1.34h0a1,1,0,0,1,1.36-.33h0A1,1,0,0,1,333,335h0a1,1,0,0,1-.86.5h0A1.06,1.06,0,0,1,331.66,335.38Zm-8.61-5.07a1,1,0,0,1-.38-1.33h0a1,1,0,0,1-1.35.32h0A1,1,0,0,1,321,328h0a1,1,0,0,1-1.35.33h0a1,1,0,0,1-.37-1.34h0a1,1,0,0,1-1.35.32h0a1,1,0,0,1-.37-1.34h0a1,1,0,0,1-1.36.33h0a1,1,0,0,1-.35-1.37h0a1,1,0,0,1,1.37-.35h0a1,1,0,0,1,.37,1.33h0a1,1,0,0,1,1.35-.32h0a1,1,0,0,1,.37,1.34h0a1,1,0,0,1,1.35-.33h0a1,1,0,0,1,.38,1.34h0a1,1,0,0,1,1.35-.33h0a1,1,0,0,1,.37,1.34h0a1,1,0,0,1,1.35-.32h0a1,1,0,0,1,.35,1.37h0a1,1,0,0,1-.86.49h0A.93.93,0,0,1,323.05,330.31Zm-8.62-5.06a1,1,0,0,1-.37-1.34h0a1,1,0,0,1-1.35.32h0a1,1,0,0,1-.37-1.34h0a1,1,0,0,1-1.36.33h0a1,1,0,0,1-.37-1.34h0a1,1,0,0,1-1.35.33h0a1,1,0,0,1-.35-1.37h0a1,1,0,0,1,1.36-.36h0a1,1,0,0,1,.38,1.34h0a1,1,0,0,1,1.35-.32h0a1,1,0,0,1,.37,1.34h0a1,1,0,0,1,1.35-.33h0a1,1,0,0,1,.37,1.34h0a1,1,0,0,1,1.35-.33h0a1,1,0,0,1,.36,1.37h0a1,1,0,0,1-.86.49h0A1,1,0,0,1,314.43,325.25Zm-6.89-4.05a1,1,0,0,1-.36-1.37h0a1,1,0,0,1,1.37-.36h0a1,1,0,0,1,.36,1.37h0a1,1,0,0,1-.87.49h0A1,1,0,0,1,307.54,321.2Zm-1.72-1a1,1,0,0,1-.38-1.34h0a1,1,0,0,1-1.35.33h0a1,1,0,0,1-.37-1.34h0a1,1,0,0,1-1.35.33h0a1,1,0,0,1-.38-1.34h0a1,1,0,0,1-1.34.32h0a1,1,0,0,1-.36-1.37h0a1,1,0,0,1,1.37-.35h0a1,1,0,0,1,.38,1.33h0a1,1,0,0,1,1.34-.32h0a1,1,0,0,1,.37,1.34h0a1,1,0,0,1,1.36-.33h0a1,1,0,0,1,.37,1.34h0a1,1,0,0,1,1.35-.32h0a1,1,0,0,1,.35,1.37h0a1,1,0,0,1-.86.49h0A.9.9,0,0,1,305.82,320.18Zm-6.9-4.05a1,1,0,0,1-.35-1.37h0a1,1,0,0,1,1.37-.35h0a1,1,0,0,1,.35,1.36h0a1,1,0,0,1-.86.5h0A1.06,1.06,0,0,1,298.92,316.13Zm-1.72-1a1,1,0,0,1-.38-1.34h0a1,1,0,0,1-1.34.32h0a1,1,0,0,1-.38-1.34h0a1,1,0,0,1-1.35.33h0a1,1,0,0,1-.37-1.34h0a1,1,0,0,1-1.35.33h0a1,1,0,0,1-.36-1.37h0a1,1,0,0,1,1.37-.36h0a1,1,0,0,1,.38,1.34h0a1,1,0,0,1,1.35-.32h0a1,1,0,0,1,.37,1.34h0a1,1,0,0,1,1.35-.33h0a1,1,0,0,1,.38,1.33h0a1,1,0,0,1,1.34-.32h0a1,1,0,0,1,.36,1.37h0a1,1,0,0,1-.86.49h0A1,1,0,0,1,297.2,315.12Zm-6.89-4.06a1,1,0,0,1-.38-1.33h0a1,1,0,0,1-1.35.32h0a1,1,0,0,1-.37-1.34h0a1,1,0,0,1-1.35.33h0a1,1,0,0,1-.36-1.37h0a1,1,0,0,1,1.37-.36h0a1,1,0,0,1,.38,1.34h0a1,1,0,0,1,1.35-.32h0a1,1,0,0,1,.37,1.34h0a1,1,0,0,1,1.35-.33h0a1,1,0,0,1,.35,1.37h0a1,1,0,0,1-.86.49h0A.93.93,0,0,1,290.31,311.06Z" style="fill:#263238"></path><path d="M273.78,320.09a1,1,0,0,1-.71-.29,1,1,0,0,1-.29-.71,1,1,0,0,1,.29-.7,1,1,0,0,1,1.42,0,1,1,0,0,1,.29.7,1,1,0,0,1-.29.71A1,1,0,0,1,273.78,320.09Z" style="fill:#263238"></path><path d="M322.15,298.13l-28.64,7.17a4.35,4.35,0,0,0-2.58,1.84l-9.37,14.4a4.36,4.36,0,0,1-4.21,1.93l-28.46-3.87a4.29,4.29,0,0,1-2.63-1.38L226.14,296a4.32,4.32,0,0,1-1.08-3.47l3-22.74a4.31,4.31,0,0,1,3.46-3.68l14.62-2.87a4.34,4.34,0,0,0,3.48-3.92l.59-7.78a4.33,4.33,0,0,1,4.56-4l36.06,2.07a4.33,4.33,0,0,1,3.2,1.7l30.5,40A4.33,4.33,0,0,1,322.15,298.13Z" style="fill:#F4B400"></path><path d="M350.05,291.87l18.79,3.39A10.48,10.48,0,0,0,381,286.82h0a10.48,10.48,0,0,0-8.43-12.14l-18.8-3.38a10.48,10.48,0,0,0-12.14,8.44h0A10.47,10.47,0,0,0,350.05,291.87Z" style="fill:#DB4437"></path><path d="M272.85,288.75l-3.05-1.37a2.61,2.61,0,0,1-1.55-2.49l.31-8.94a2.45,2.45,0,0,0-.2-1.1c-.81-1.93-3.65-8.67-5.28-11.89a1.39,1.39,0,0,0-2.22-.35h0a1.4,1.4,0,0,0-.28,1.61l5.16,10.53a2.59,2.59,0,0,1,.26,1.31l-.58,9.85a2.75,2.75,0,0,0,.27,1.32l2.59,5.27a1.82,1.82,0,0,0,1.75,1l2-.13a1.81,1.81,0,0,0,1.65-1.43l.25-1.16A1.82,1.82,0,0,0,272.85,288.75Z" style="fill:#fff"></path><circle cx="255.14" cy="300.29" r="13.16" transform="translate(-138.36 320.92) rotate(-52.65)" style="fill:#263238;opacity:0.30000000000000004"></circle><rect x="280.28" y="268.09" width="10.84" height="22.46" rx="3.62" transform="translate(545.39 582.98) rotate(-174.89)" style="fill:#727375;opacity:0.2"></rect><path d="M247,283.81a2.42,2.42,0,1,0,3.2-1.21A2.43,2.43,0,0,0,247,283.81Z" style="fill:#263238;opacity:0.30000000000000004"></path><path d="M275.75,318.94,335,365.2a5,5,0,0,0,7-.86h0a5,5,0,0,0-.86-7l-59.22-46.26a5,5,0,0,0-7,.85h0A5,5,0,0,0,275.75,318.94Z" style="fill:#F4B400"></path><path d="M315.24,289.51c-5.57,1-23.74,5.34-29.81,6.81a1.8,1.8,0,0,1-2.21-1.57l-3.62-33.83-4.53.4,3.73,37a1.81,1.81,0,0,1-.12.83l-2.09,5.43a1.77,1.77,0,0,1-1.23,1.09l-5,1.31a1.76,1.76,0,0,0-1.19,1l-4,8.81a1.8,1.8,0,0,1-1.81,1.06L253.29,317a10.26,10.26,0,0,1-6.68-3.33L229,294.23a1.81,1.81,0,0,1-.46-1.31l1.87-33.25a1.8,1.8,0,0,0-1.24-1.82h0a1.81,1.81,0,0,0-2.36,1.56l-3.12,36.67a1.82,1.82,0,0,0,.38,1.27l17.44,22.13a11.73,11.73,0,0,0,8.73,4.46l21.35.87a1.8,1.8,0,0,0,1.63-.88l13.17-22.05a1.87,1.87,0,0,1,1.06-.81l31-8.7-1.37-2.07A1.81,1.81,0,0,0,315.24,289.51Z" style="fill:#E0E0E0"></path><path d="M269.89,216.07l-13.84-1.6a2,2,0,0,0-2.13,1.6L247.23,256a1.92,1.92,0,0,0,1.64,2.22l30.85,4.31a1.92,1.92,0,0,0,2.18-1.67l.76-6.15a1.92,1.92,0,0,1,1-1.48l3.24-1.67a1.92,1.92,0,0,1,2.69,1l8.05,22a2,2,0,0,0,.78,1l10.39,6.59a1.94,1.94,0,0,0,1.1.3l50.42-1.82a1.94,1.94,0,0,0,1.38-.65c1.66-1.87,7.94-7,23.29-1.3,12.82,4.78,22,8.86,26.36,10.91a1.93,1.93,0,0,0,2.73-1.86h0a1.89,1.89,0,0,0-.49-1.19,75,75,0,0,0-24.07-17c-15.24-6.84-47.7-10.1-50.34-10.36a1.86,1.86,0,0,1-.34-.06l-47.61-13.46a1.86,1.86,0,0,1-1.07-.77l-18.93-28A1.91,1.91,0,0,0,269.89,216.07Z" style="fill:#263238"></path><path d="M154.23,226.52A45.54,45.54,0,1,1,94,249.41,45.53,45.53,0,0,1,154.23,226.52ZM122,298.23a33.07,33.07,0,1,0-16.62-43.7A33.07,33.07,0,0,0,122,298.23Z" style="fill:#F4B400"></path><path d="M157.67,218.86A53.94,53.94,0,1,1,86.36,246,53.92,53.92,0,0,1,157.67,218.86Zm-38.94,86.73a41.13,41.13,0,1,0-20.67-54.37A41.14,41.14,0,0,0,118.73,305.59Z" style="fill:#263238"></path><path d="M140.33,271.54l106.53-77a5,5,0,0,0,1.12-6.94h0a5,5,0,0,0-6.94-1.12l-106.53,77a5,5,0,0,0-1.12,6.93h0A5,5,0,0,0,140.33,271.54Z" style="fill:#F4B400"></path><rect x="224.74" y="186.57" width="20.8" height="12.54" rx="3.85" transform="translate(538.67 211.45) rotate(144.15)" style="fill:#F4B400"></rect><path d="M245.84,187.1l13.75-9.94a1.67,1.67,0,0,1,1.07-.3L273.07,175a1.5,1.5,0,0,1,1.7,1.27l.05.36a1.49,1.49,0,0,1-1.26,1.7l-12.4,1.81-13.35,9.65a1.68,1.68,0,0,1-2-2.73Z" style="fill:#263238"></path><path d="M216.3,201.5l30.91-22.85a.91.91,0,0,0-.84-1.58l-22.09,7.74a12.85,12.85,0,0,0-8.42,10l-1,5.84A.91.91,0,0,0,216.3,201.5Z" style="fill:#DB4437"></path><path d="M142.89,251.76a17.87,17.87,0,1,1-23.62,9A17.88,17.88,0,0,1,142.89,251.76Z" style="fill:#E0E0E0"></path><path d="M140.2,272.87l21.33-15.42a1.44,1.44,0,0,0,.32-2l-5.27-7.31a1.47,1.47,0,0,0-2-.33L133.21,263.2a6,6,0,0,0-1.34,8.32h0A6,6,0,0,0,140.2,272.87Z" style="fill:#263238"></path><path d="M364.2,259.25h0a5.43,5.43,0,0,1-.33,5.25l-.73,1.15a5.43,5.43,0,0,1-4.19,2.49c-7.15.48-27.65,1-54.47-5.4a35.93,35.93,0,0,1-22.56-16.61c-6.24-10.55-12.27-23.84-14.3-33.74a1.34,1.34,0,0,1,1.18-1.57,6.94,6.94,0,0,1,2.35.12,1.27,1.27,0,0,1,1,.81c1.26,3.28,8,19.36,21.37,25.37,13,5.86,56.27,16.56,67.13,19.2A5.42,5.42,0,0,1,364.2,259.25Z" style="fill:#0F9D58"></path><path d="M268.42,219.49a6.28,6.28,0,0,0-1.07-7.48c-3.54-3.47-7.58-5.73-13-8.64-5.55-3-9,1.89-10.28,4.12a1.5,1.5,0,0,0,.24,1.78h0a1.54,1.54,0,0,1-.6,2.51l-13,4.45a10.63,10.63,0,0,0-7.13,9.15l-2.34,27.35a5.52,5.52,0,0,0,3.24,5.5l6.59,3a5.51,5.51,0,0,0,7-2.28l3.15-5.47a5.51,5.51,0,0,1,4.24-2.73l8-.79a7.81,7.81,0,0,0,7-7.11l.92-10.69Z" style="fill:#0F9D58"></path><path d="M233.23,257.43a2.17,2.17,0,0,1-.36,0h0a2.29,2.29,0,0,1-.72-.21l-6.6-3A2.66,2.66,0,0,1,224,251.6l2.34-27.35a7.76,7.76,0,0,1,5.2-6.67l13-4.45A4.41,4.41,0,0,0,247,206.9l-.07-.13.08-.13c.92-1.36,2.4-2.93,4.24-2.68a4.9,4.9,0,0,1,1.63.57c5.54,3,9.13,5,12.32,8.16a3.42,3.42,0,0,1,.56,4.06l-7.15,13.16-1,11.28a4.93,4.93,0,0,1-4.44,4.5l-8,.79a8.4,8.4,0,0,0-6.45,4.16l-3.15,5.47A2.63,2.63,0,0,1,233.23,257.43Zm-.29-.52a2.11,2.11,0,0,0,2.14-1.05l3.15-5.47a8.92,8.92,0,0,1,6.84-4.41l8-.79a4.46,4.46,0,0,0,4-4l1-11.43,7.18-13.21a2.91,2.91,0,0,0-.47-3.46c-3.14-3.08-6.71-5.11-12.21-8.08a4.33,4.33,0,0,0-1.46-.51c-1.53-.2-2.83,1.13-3.67,2.34a4.92,4.92,0,0,1-2.8,6.8l-12.95,4.46a7.25,7.25,0,0,0-4.87,6.23l-2.34,27.36a2.14,2.14,0,0,0,1.26,2.13l6.59,3a1.81,1.81,0,0,0,.59.17Z" style="opacity:0.1"></path><path d="M359.57,276.87l2.33,3.82a5,5,0,0,1,.73,2.53l.2,14a5,5,0,0,1-1.37,3.51l-4.93,5.2a5,5,0,0,1-4.2,1.52l-25.26-2.93a5,5,0,0,1-3.5-2.07l-10.86-15.26a5,5,0,0,1,1.83-7.37l10-5.05a25.45,25.45,0,0,1,14.86-2.48L356,274.52A5,5,0,0,1,359.57,276.87Z" style="fill:#0F9D58"></path><path d="M352.2,303.46l-.24,0-25.3-2.93a2.14,2.14,0,0,1-1.45-.88l-10.86-15.26a2.13,2.13,0,0,1-.33-1.74,2.1,2.1,0,0,1,1.11-1.39l10-5.05A22.51,22.51,0,0,1,338.35,274l16.54,2.24a2.15,2.15,0,0,1,1.53,1l2.32,3.81a2.08,2.08,0,0,1,.31,1.08l.2,14a2.1,2.1,0,0,1-.58,1.49l-4.93,5.2A2.13,2.13,0,0,1,352.2,303.46ZM326.72,300,352,303a1.63,1.63,0,0,0,1.37-.5l4.93-5.19a1.6,1.6,0,0,0,.44-1.14l-.2-14a1.62,1.62,0,0,0-.23-.83L356,277.48a1.6,1.6,0,0,0-1.17-.76l-16.53-2.24a22,22,0,0,0-12.89,2.16l-10,5.05a1.62,1.62,0,0,0-.6,2.39l10.86,15.26A1.61,1.61,0,0,0,326.72,300Z" style="opacity:0.1"></path><path d="M334.29,359.51a4.07,4.07,0,1,0,5.37-2.09A4.09,4.09,0,0,0,334.29,359.51Z" style="fill:#263238;opacity:0.30000000000000004"></path><path d="M283.22,294.75c9.92-19.33,21-29.35,23-50.07,17.95-6.78,56.67.54,63.29-22.17l-31.85-18.75s-49.18,11.33-54,27.23c-2,6.58-6.88,25-13.46,46.82-2.39,7.9-6.58,18.17-7.25,23.88l13.75,7.91C280,302.14,281.19,298.71,283.22,294.75Z" style="fill:#4285F4"></path><path d="M283.22,294.75c9.92-19.33,21-29.35,23-50.07,17.95-6.78,56.67.54,63.29-22.17l-31.85-18.75s-49.18,11.33-54,27.23c-2,6.58-6.88,25-13.46,46.82-2.39,7.9-6.58,18.17-7.25,23.88l13.75,7.91C280,302.14,281.19,298.71,283.22,294.75Z" style="fill:#fff;opacity:0.4"></path><path d="M277.31,319l-1-.71-31.68-12.14c-1.41.64-1.83,4.26,2.44,5.8s10.93,3.75,15.33,5.34,8.06,3.08,12.2,4.57C275.78,322.31,277.31,320.89,277.31,319Z" style="fill:#4285F4"></path><path d="M277.31,319l-1-.71-31.68-12.14c-1.41.64-1.83,4.26,2.44,5.8s10.93,3.75,15.33,5.34,8.06,3.08,12.2,4.57C275.78,322.31,277.31,320.89,277.31,319Z" style="opacity:0.30000000000000004"></path><path d="M286.63,279.91l-.41-.28c6.93-9.93,15.85-37.65,14.26-39.5-.34-.39-.53-.7-.37-.95s.66-.17,1.38,0c.45.12,1.37.36,1.51.18s.05-.23-.16-.64a.79.79,0,0,1,0-.73c.95-1.76,9.56-2.93,19.86-4.18,2.56-.31,4.76-.58,6.17-.81,3.17-.51,6.36-2,9.44-3.47,2.78-1.31,5.4-2.54,7.6-2.82,4.94-.6,9.7-4.24,13.41-10.23l.43.26c-3.8,6.13-8.69,9.84-13.78,10.47-2.12.26-4.71,1.48-7.44,2.77-3.12,1.47-6.34,3-9.58,3.52-1.42.23-3.63.49-6.19.8-6.95.85-18.58,2.25-19.48,3.93a.24.24,0,0,0,0,.26c.17.35.37.85.1,1.19s-1.2.2-2,0c-.23-.06-.55-.14-.74-.17a2.19,2.19,0,0,0,.23.3C302.8,242.06,293.27,270.4,286.63,279.91Z" style="fill:#4285F4;opacity:0.5"></path><path d="M282.3,306.9c-.58,4.05-2.69,10.1-4.73,12.07-.3.83-1,.6-1.86.3-4.55-1.64-9.7-3.67-14.08-5.33-5.11-1.93-8.57-2.64-14.57-4.91-3.62-1.37-2.91-3.89-1.12-4.21,5.22-.92,11.09.39,17-2.16,1-5.14,4.45-23.9,7.45-29.74a1.55,1.55,0,0,1,1.39-.85c8.29,0,17.29,4.6,20.55,6.45a1.59,1.59,0,0,1,.67,2.06C290.76,285.59,282.7,303.44,282.3,306.9Z" style="fill:#DB4437"></path><path d="M359,149.22c-7.29-13.89-18.6-14.91-35.48-6.47-6.44,3.22-11.48,8-9.21,15.43,5.34,17.38,11.1,25,9.67,35.62.73,7.09,26.31,22.5,46.85,28.89C380.44,205.89,369.27,168.75,359,149.22Z" style="fill:#DB4437"></path><path d="M347,159.55c-11.37,5.28-20.23,12.87-25.92,17.36,1.93,5.19,3.22,9.51,3.09,14.25,3,.18,6.24,0,8.09-1.58C339.44,183.54,347.11,166.94,347,159.55Z" style="opacity:0.30000000000000004"></path><path d="M333.62,126.47l-12.18,7.21c1.8,4.18,2.68,6.65.34,10-1.78,2.23,1.23,5.82,6.53,4.39,4.61-1.24,11.76-5,13.42-7.49C339.64,136.86,336.18,131.64,333.62,126.47Z" style="fill:#263238"></path><path d="M303.19,106.79c-1.39.53-.86,7.33-.29,9-1.29,8.3,2.31,10.08,2.31,10.08s-2.36,1.56,1,6.31c11.47-.07,20.47-9.34,19.95-17.54S310.36,105.81,303.19,106.79Z" style="fill:#DB4437"></path><path d="M345.48,132.86c-7.38,6-37.11,11.15-45.14,12.44a2.42,2.42,0,0,1-2.67-1.6l-2.26-6.54a2.42,2.42,0,0,1,.4-2.32l3.18-3.92a4.2,4.2,0,0,1,3.15-1.56c3.08-.08,9.26-.53,13.52-2.78,5.89-3.11,8.47-7.75,7.74-13.51s-34.66-5.47-34.66-5.47-1.1-1.9,4.16-5,20.46-4.46,20.46-4.46S324.45,94.85,333,96.4s6.28,4.86,6.28,4.86,6.48,2.63,9.37,12.3S348.66,130.26,345.48,132.86Z" style="fill:#4285F4"></path><path d="M348.68,113.56a21.16,21.16,0,0,0-6.58-10.49c-10.3,1.63-28.8,1.76-43.27-2.6a23.92,23.92,0,0,0-5.93,2.13c-5.27,3.09-4.16,5-4.16,5s33.93-.3,34.66,5.47-1.85,10.39-7.74,13.5c-4.26,2.26-10.44,2.71-13.52,2.79a4.2,4.2,0,0,0-3.15,1.55l-3.17,3.92a2.61,2.61,0,0,0-.2.3c14.64-2,33.58-16.71,54-10.92A25,25,0,0,0,348.68,113.56Z" style="fill:#fff;opacity:0.2"></path><path d="M302.35,113.89c-.87.77-.87,9.61,1.17,11.79s5,.83,6,.1,7-1.62,7.95-4.94,1.35-6.58-3.4-8.58A12.13,12.13,0,0,0,302.35,113.89Z" style="fill:#4285F4"></path><path d="M310.64,114a8.71,8.71,0,0,0-1.5-.39,10.36,10.36,0,0,0-7.23,1.86c-.33,2.85,0,8.49,1.61,10.17a3.85,3.85,0,0,0,.7.6,4.65,4.65,0,0,0,1.92-.94,7.42,7.42,0,0,1,1.8-.92c1.69-.72,4.55-1.94,5.05-3.79C313.94,117.19,313.82,115.22,310.64,114Z" style="fill:#F4B400"></path><path d="M314.88,114.1s21.26-8.45,31.87-7.93a30.87,30.87,0,0,1,2.9,6,3.43,3.43,0,0,1-1,1.19c-.59-.93-1.25-.89-2.52-.67s-24,6.21-30.76,9.15A22.13,22.13,0,0,1,314.88,114.1Z" style="fill:#4285F4"></path><path d="M314.88,114.1s21.26-8.45,31.87-7.93a30.87,30.87,0,0,1,2.9,6,3.43,3.43,0,0,1-1,1.19c-.59-.93-1.25-.89-2.52-.67s-24,6.21-30.76,9.15A22.13,22.13,0,0,1,314.88,114.1Z" style="fill:#fff;opacity:0.5"></path><path d="M347.06,128.94c-3.72-2.16-14.29,8.1-43.35,15.8,10.91-1.87,35.2-6.53,41.77-11.88a9.8,9.8,0,0,0,2.27-2.79A1.26,1.26,0,0,0,347.06,128.94Z" style="opacity:0.30000000000000004"></path><path d="M351.51,155.32c-.44.8-.78,1.39-1.16,2s-.77,1.26-1.15,1.88c-.78,1.23-1.6,2.42-2.42,3.61-1.67,2.35-3.43,4.64-5.32,6.84-.93,1.11-1.91,2.19-2.88,3.27s-2,2.11-3.07,3.11a78.37,78.37,0,0,1-6.62,5.83l-.4.33a6,6,0,0,1-2.22,1.1,50.6,50.6,0,0,1-10.33,1.35,77.85,77.85,0,0,1-9.82-.29c-3.22-.3-6.38-.75-9.5-1.35a85.85,85.85,0,0,1-9.31-2.28,3.84,3.84,0,0,1,1.16-7.51h.16c2.87,0,5.92,0,8.86,0s5.89-.18,8.78-.4,5.73-.53,8.46-1a46.16,46.16,0,0,0,7.66-1.87l-2.61,1.43c1.74-1.76,3.45-3.54,5.08-5.44s3.21-3.85,4.74-5.85,3-4.05,4.44-6.15c.72-1,1.4-2.09,2.1-3.13l1-1.57.92-1.45.19-.31a7.69,7.69,0,0,1,13.25,7.81Z" style="fill:#4285F4"></path><path d="M312.62,179.58a153.05,153.05,0,0,1-24.7-2.33l.1-.49c.25,0,25.32,4.74,39.53.64,12.3-10.69,20.55-27.89,20.64-28.06l.45.21c-.09.17-8.41,17.51-20.8,28.27l-.1.05A56.22,56.22,0,0,1,312.62,179.58Z" style="fill:#fff;opacity:0.5"></path><path d="M294.58,171.69s3,9.78.43,13.14a133.3,133.3,0,0,1-19.18-5.17s-3.1,5.05-9.73.63,0-9.38,5.16-9.72S294.58,171.69,294.58,171.69Z" style="fill:#263238"></path><path d="M295.92,219c-6,.63-15.07,9-13.93,17.79,6.37-1.79,9.87-4.66,11.25-6.5C296.2,226.3,295.92,219,295.92,219Z" style="fill:#263238"></path><path d="M394.66,233.92c22.13,9.51,41.11,24,41.11,24l-5.94,2s18.7,11,31.16,15.18c-26-6.21-40.44-17.44-40.44-17.44l6.28-1.33S405.36,239.67,394.66,233.92Z" style="fill:#FFFFFF"></path><path d="M385.83,162.65a126.87,126.87,0,0,1,27.21-.17l-2.35,2.71s12.43,0,19.77-1.6c-14.63,4.51-25,3.18-25,3.18l2.71-2.48S392.77,162.37,385.83,162.65Z" style="fill:#FFFFFF"></path><path d="M386.49,193.85c14.57,1.42,31.39,9.46,37.34,16A403.77,403.77,0,0,0,386.49,193.85Z" style="fill:#FFFFFF"></path><path d="M177,164.09c5.53-1.3,12.81-.22,15.91,1.65A56.65,56.65,0,0,1,177,164.09Z" style="fill:#FFFFFF"></path><path d="M389.15,305.1c5.05,2.61,9.88,8.17,11,11.6A57.14,57.14,0,0,1,389.15,305.1Z" style="fill:#FFFFFF"></path><path d="M194.33,158c13.09-.64,28.54,1.67,34.22,4.26C207.73,161.13,194.33,158,194.33,158Z" style="fill:#FFFFFF"></path></g></svg>