<?xml version="1.0" standalone="no"?>
<!DOCTYPE svg PUBLIC "-//W3C//DTD SVG 20010904//EN"
 "http://www.w3.org/TR/2001/REC-SVG-20010904/DTD/svg10.dtd">
<svg version="1.0" xmlns="http://www.w3.org/2000/svg"
 width="360.000000pt" height="360.000000pt" viewBox="0 0 360.000000 360.000000"
 preserveAspectRatio="xMidYMid meet">
<metadata>
Created by potrace 1.14, written by Peter Selinger 2001-2017
</metadata>
<g transform="translate(0.000000,360.000000) scale(0.100000,-0.100000)"
fill="#000000" stroke="none">
<path d="M2460 3350 c-19 -5 -57 -12 -85 -15 -164 -20 -284 -94 -145 -90 66 2
79 -8 73 -55 -8 -55 -3 -114 12 -130 20 -22 19 -30 -5 -30 -20 0 -75 -53 -75
-73 0 -7 5 -28 11 -47 11 -31 16 -35 46 -34 41 1 98 9 162 24 27 6 50 9 52 7
2 -2 -17 -25 -42 -51 -45 -45 -46 -48 -42 -95 4 -45 2 -52 -31 -89 -49 -54
-125 -73 -236 -58 -83 12 -202 13 -235 2 -24 -8 -36 -20 -44 -43 -13 -39 -110
-115 -140 -110 -48 6 -50 18 -10 53 22 18 34 33 28 34 -18 0 -236 -79 -261
-95 -33 -22 -51 -54 -59 -109 -7 -54 -8 -54 54 -8 31 24 51 25 37 3 -3 -6 -33
-29 -65 -51 l-59 -40 -21 27 c-50 64 -200 154 -280 168 -121 22 -177 24 -275
11 -138 -19 -169 -37 -109 -62 34 -15 48 -15 117 -4 134 22 249 -1 355 -69 61
-39 136 -116 128 -130 -4 -6 -66 -54 -139 -106 l-131 -95 -21 23 c-29 33 -104
89 -145 109 -76 37 -145 52 -240 52 -132 1 -171 -10 -294 -83 -149 -87 -237
-240 -250 -435 -3 -38 14 -152 29 -191 12 -33 59 -129 70 -142 36 -41 119
-123 126 -123 4 0 14 -6 21 -12 12 -12 38 -25 108 -56 55 -24 186 -39 255 -28
70 11 74 12 81 19 4 4 14 7 21 7 19 0 121 49 146 69 83 70 137 136 174 218 15
32 27 60 28 63 22 86 25 168 9 250 -8 41 -16 83 -17 93 0 9 -4 17 -7 17 -11 0
-32 72 -24 79 5 4 66 49 136 99 l127 92 20 -63 c18 -59 33 -145 46 -265 9 -90
36 -117 50 -52 6 26 8 28 21 15 9 -8 19 -15 23 -15 8 0 6 -94 -4 -155 -2 -16
-7 -73 -11 -126 l-7 -96 81 -104 c133 -173 117 -164 305 -174 72 -4 107 -3
107 4 0 28 35 4 102 -70 40 -45 78 -87 85 -94 9 -10 8 -24 -8 -66 -46 -121
-21 -316 54 -433 27 -43 81 -102 109 -121 8 -5 33 -22 54 -36 74 -49 193 -81
294 -79 83 2 222 50 280 96 81 65 180 199 180 244 0 10 4 21 9 24 18 11 28
144 17 231 -5 40 -40 141 -62 175 -57 91 -137 165 -219 204 -22 10 -48 22 -57
27 -10 5 -27 9 -37 9 -11 0 -22 4 -25 8 -7 11 -192 7 -237 -6 -45 -12 -146
-59 -153 -71 -4 -5 -16 -4 -30 2 -24 11 -24 12 -6 37 18 26 38 85 42 130 2 14
8 25 13 26 6 0 23 4 39 9 24 6 33 4 46 -12 30 -38 42 -41 235 -59 33 -3 66 -7
74 -10 22 -7 101 79 101 110 0 24 2 26 38 20 67 -11 76 -8 111 27 38 38 42 92
10 133 l-21 26 99 -35 c54 -19 107 -39 118 -45 84 -40 140 -59 148 -51 13 13
-1 33 -68 90 -81 69 -178 115 -311 148 -72 18 -109 32 -107 40 9 25 -37 51
-123 72 -76 18 -176 44 -359 93 -36 9 -38 11 -18 19 12 4 55 11 95 14 287 23
395 62 437 156 10 22 20 37 23 34 7 -7 25 39 36 90 27 131 -34 410 -134 610
-41 83 -49 94 -90 122 -28 20 -61 30 -109 32 -15 1 -9 8 21 26 55 33 73 77 69
171 -3 71 -16 114 -36 114 -6 0 -31 21 -55 47 -44 46 -45 46 -117 49 -39 2
-88 -1 -107 -6z m-508 -840 c26 -8 44 -8 57 0 15 7 43 4 113 -14 53 -13 99
-20 108 -16 9 5 45 5 80 1 36 -5 94 -7 130 -6 37 1 68 -3 72 -9 4 -6 8 -30 8
-53 0 -45 -3 -48 -75 -58 -125 -19 -321 -80 -362 -114 -12 -10 -31 -33 -42
-51 l-20 -34 -11 28 c-8 23 -15 27 -35 24 -17 -4 -34 3 -53 19 -36 32 -106 66
-137 66 -20 0 -27 7 -34 33 -14 49 20 107 89 156 62 42 61 42 112 28z m-428
-380 c0 -19 -3 -48 -6 -65 -4 -16 -7 -37 -8 -45 -1 -8 -10 14 -21 50 -11 36
-22 72 -25 81 -5 14 1 16 28 15 31 -2 33 -4 32 -36z m-800 -172 c44 -13 102
-46 130 -73 13 -13 14 -20 5 -31 -7 -8 -14 -12 -17 -10 -2 3 -25 -9 -49 -25
l-45 -31 -52 16 c-82 26 -153 6 -199 -56 -35 -47 -45 -86 -35 -138 26 -140
185 -194 293 -99 37 33 66 105 58 148 -3 16 3 28 19 40 13 8 40 31 61 50 21
18 39 32 42 29 2 -2 11 -29 19 -59 42 -164 -54 -341 -216 -395 -68 -22 -176
-15 -242 16 -183 87 -245 319 -130 487 77 113 229 169 358 131z m1031 -176
c-4 -20 -1 -33 9 -41 36 -30 -16 -58 -142 -77 -42 -7 -44 -6 -40 17 2 14 9 23
17 21 28 -6 49 10 79 58 25 39 37 50 57 50 24 0 26 -3 20 -28z m581 -524 c-3
-18 -16 -45 -29 -60 l-22 -28 -53 31 c-52 31 -53 32 -35 50 10 10 43 23 72 29
30 6 57 12 59 15 11 10 14 -5 8 -37z m-66 -98 c0 -4 -16 -12 -35 -19 -30 -11
-38 -10 -60 6 -26 19 -32 42 -14 60 9 9 24 5 60 -15 27 -15 49 -29 49 -32z
m86 -51 c11 -18 -48 -59 -68 -48 -25 13 -23 22 10 41 32 20 48 22 58 7z m-206
-69 c86 -64 90 -69 78 -100 -9 -24 -11 -23 -83 55 -104 112 -102 124 5 45z
m600 -56 c48 -8 111 -46 150 -91 133 -151 83 -387 -100 -471 -42 -19 -71 -25
-125 -25 -85 1 -143 24 -202 81 -55 54 -83 111 -90 181 l-5 56 43 -49 c146
-166 178 -187 276 -181 79 5 163 69 180 138 21 85 10 151 -35 203 -15 17 -56
48 -92 69 -36 22 -67 43 -68 47 -2 4 -7 6 -12 3 -4 -3 -13 2 -20 10 -7 8 -19
15 -26 15 -26 0 -14 19 14 22 28 4 51 2 112 -8z m-140 -26 c0 -5 5 -6 10 -3 6
3 10 1 10 -5 0 -6 4 -9 9 -5 6 3 14 -2 19 -11 5 -9 11 -15 13 -14 8 3 39 -12
39 -19 0 -3 -22 -7 -49 -7 -27 -1 -62 -9 -79 -19 -29 -18 -30 -18 -66 10 -30
22 -34 30 -24 42 31 38 118 61 118 31z m-154 -155 c24 -18 33 -31 28 -42 -10
-24 -12 -93 -3 -118 6 -17 5 -21 -7 -16 -8 3 -13 7 -11 9 2 3 -16 26 -40 52
-45 48 -47 55 -23 117 12 31 13 31 56 -2z"/>
<path d="M1280 2730 c44 -11 113 -19 204 -25 70 -4 65 1 -24 20 -46 10 -218
15 -180 5z"/>
<path d="M3225 2699 c-26 -6 -24 -7 20 -9 28 -2 55 -4 60 -5 6 -2 21 -3 34 -4
21 -1 22 -3 10 -18 -13 -15 -8 -16 61 -10 41 4 89 11 105 16 21 6 7 7 -48 3
-66 -4 -77 -3 -72 10 5 12 -6 15 -61 17 -37 1 -70 3 -73 5 -3 1 -19 -1 -36 -5z"/>
<path d="M1075 2679 c-18 -7 -17 -8 6 -8 14 -1 48 -4 75 -7 33 -3 44 -2 34 4
-21 14 -92 20 -115 11z"/>
<path d="M3240 2345 c47 -20 99 -42 115 -48 17 -6 58 -25 93 -43 48 -24 59
-27 45 -12 -41 46 -204 117 -301 133 -26 5 -12 -4 48 -30z"/>
<path d="M3270 1956 c0 -2 17 -15 38 -27 55 -33 231 -163 232 -171 0 -4 -12
-8 -27 -10 -27 -3 -26 -4 21 -36 28 -17 53 -32 56 -32 4 0 7 20 8 45 0 36 -4
48 -21 59 -12 7 -53 34 -92 58 -71 46 -215 122 -215 114z"/>
<path d="M3205 1228 c29 -34 75 -73 75 -64 0 11 -82 96 -92 96 -5 0 2 -14 17
-32z"/>
</g>
</svg>
